<svg width="252" height="252" viewBox="0 0 252 252" fill="none" xmlns="http://www.w3.org/2000/svg">
<path d="M134.101 126.001L186.75 73.3509C188.987 71.1141 188.987 67.4873 186.75 65.2504C184.514 63.0134 180.887 63.0136 178.65 65.2504L126.005 117.9L73.3503 65.2554C71.1135 63.0186 67.4867 63.0186 65.2497 65.2554C63.013 67.4921 63.013 71.119 65.2497 73.3559L117.904 126.001L65.2548 178.65C63.0326 180.872 63.0326 184.529 65.2548 186.751C67.4769 188.973 71.133 188.973 73.3553 186.751L126.005 134.101L178.655 186.751C180.877 188.973 184.533 188.973 186.755 186.751C188.977 184.529 188.977 180.873 186.755 178.65L134.101 126.001Z" fill="white"/>
<path d="M126 0C56.4156 0 0 56.4112 0 126C0 195.584 56.4112 252 126 252C195.584 252 252 195.589 252 126C252 56.4156 195.586 0 126 0ZM126 240.541C62.8371 240.541 11.4585 189.157 11.4585 126C11.4585 62.8371 62.8434 11.4585 126 11.4585C189.157 11.4585 240.541 62.8384 240.541 126C240.541 189.162 189.162 240.541 126 240.541Z" fill="white"/>
</svg>
